<svg width="1200" height="720" viewBox="0 0 1200 720" fill="none" xmlns="http://www.w3.org/2000/svg">
  <rect width="1200" height="720" fill="#D4CEC4"/>
  <rect x="58" y="58" width="1084" height="604" rx="28" fill="#F8F5EF"/>
  <rect x="118" y="118" width="334" height="484" rx="20" fill="#DED6CA"/>
  <rect x="506" y="118" width="580" height="238" rx="20" fill="#ECE5DB"/>
  <rect x="506" y="388" width="580" height="214" rx="20" fill="#E2DBD0"/>
  <rect x="168" y="176" width="236" height="336" rx="18" fill="#4C382E"/>
  <rect x="212" y="220" width="148" height="248" rx="10" fill="#DCC9A7"/>
  <rect x="564" y="176" width="170" height="18" rx="9" fill="#0E5B55"/>
  <rect x="564" y="224" width="340" height="18" rx="9" fill="#B78C4A"/>
  <rect x="564" y="270" width="274" height="14" rx="7" fill="#BDB2A3"/>
  <rect x="564" y="296" width="420" height="14" rx="7" fill="#C8BFB3"/>
  <rect x="564" y="436" width="196" height="16" rx="8" fill="#0E5B55"/>
  <rect x="564" y="480" width="392" height="14" rx="7" fill="#C2B8AA"/>
  <rect x="564" y="506" width="456" height="14" rx="7" fill="#CBC2B6"/>
  <circle cx="1008" cy="190" r="48" fill="#0E5B55" fill-opacity="0.12"/>
</svg>
